<?xml version="1.0" encoding="UTF-8" standalone="no"?>
<!DOCTYPE svg PUBLIC "-//W3C//DTD SVG 1.1//EN"
 "http://www.w3.org/Graphics/SVG/1.1/DTD/svg11.dtd">
<!-- Generated by graphviz version 2.43.0 (0)
 -->
<!-- Title: %3 Pages: 1 -->
<svg width="12163pt" height="332pt"
 viewBox="0.00 0.00 12163.48 332.00" xmlns="http://www.w3.org/2000/svg" xmlns:xlink="http://www.w3.org/1999/xlink">
<g id="graph0" class="graph" transform="scale(1 1) rotate(0) translate(4 328)">
<title>%3</title>
<polygon fill="white" stroke="transparent" points="-4,4 -4,-328 12159.48,-328 12159.48,4 -4,4"/>
<!-- App.tsx -->
<g id="node1" class="node">
<title>App.tsx</title>
<ellipse fill="lightblue" stroke="lightblue" cx="3553.34" cy="-234" rx="46.29" ry="18"/>
<text text-anchor="middle" x="3553.34" y="-230.3" font-family="Times,serif" font-size="14.00">App.tsx</text>
</g>
<!-- pages/Index.tsx -->
<g id="node3" class="node">
<title>pages/Index.tsx</title>
<ellipse fill="lightblue" stroke="lightblue" cx="3222.34" cy="-162" rx="83.69" ry="18"/>
<text text-anchor="middle" x="3222.34" y="-158.3" font-family="Times,serif" font-size="14.00">pages/Index.tsx</text>
</g>
<!-- App.tsx&#45;&gt;pages/Index.tsx -->
<g id="edge3" class="edge">
<title>App.tsx&#45;&gt;pages/Index.tsx</title>
<path fill="none" stroke="black" d="M3503.76,-222.51C3443.78,-209.83 3343.02,-188.52 3279.74,-175.14"/>
<polygon fill="black" stroke="black" points="3503.23,-225.98 3513.74,-224.63 3504.68,-219.13 3503.23,-225.98"/>
</g>
<!-- pages/NotFound.tsx -->
<g id="node4" class="node">
<title>pages/NotFound.tsx</title>
<ellipse fill="lightblue" stroke="lightblue" cx="3428.34" cy="-162" rx="103.98" ry="18"/>
<text text-anchor="middle" x="3428.34" y="-158.3" font-family="Times,serif" font-size="14.00">pages/NotFound.tsx</text>
</g>
<!-- App.tsx&#45;&gt;pages/NotFound.tsx -->
<g id="edge4" class="edge">
<title>App.tsx&#45;&gt;pages/NotFound.tsx</title>
<path fill="none" stroke="black" d="M3519.25,-213.91C3499.92,-203.09 3476,-189.69 3457.54,-179.35"/>
<polygon fill="black" stroke="black" points="3517.61,-217 3528.04,-218.83 3521.03,-210.89 3517.61,-217"/>
</g>
<!-- components/ui/sonner.tsx -->
<g id="node42" class="node">
<title>components/ui/sonner.tsx</title>
<ellipse fill="lightblue" stroke="lightblue" cx="3679.34" cy="-162" rx="129.18" ry="18"/>
<text text-anchor="middle" x="3679.34" y="-158.3" font-family="Times,serif" font-size="14.00">components/ui/sonner.tsx</text>
</g>
<!-- App.tsx&#45;&gt;components/ui/sonner.tsx -->
<g id="edge1" class="edge">
<title>App.tsx&#45;&gt;components/ui/sonner.tsx</title>
<path fill="none" stroke="black" d="M3587.64,-213.95C3606.97,-203.21 3630.89,-189.92 3649.45,-179.61"/>
<polygon fill="black" stroke="black" points="3585.88,-210.92 3578.84,-218.83 3589.28,-217.04 3585.88,-210.92"/>
</g>
<!-- components/ui/tooltip.tsx -->
<g id="node56" class="node">
<title>components/ui/tooltip.tsx</title>
<ellipse fill="lightblue" stroke="lightblue" cx="3955.34" cy="-162" rx="128.88" ry="18"/>
<text text-anchor="middle" x="3955.34" y="-158.3" font-family="Times,serif" font-size="14.00">components/ui/tooltip.tsx</text>
</g>
<!-- App.tsx&#45;&gt;components/ui/tooltip.tsx -->
<g id="edge2" class="edge">
<title>App.tsx&#45;&gt;components/ui/tooltip.tsx</title>
<path fill="none" stroke="black" d="M3597.09,-218.84C3600.88,-217.81 3604.66,-216.84 3608.34,-216 3656,-205.06 3780.3,-187 3866.4,-175.06"/>
<polygon fill="black" stroke="black" points="3595.81,-215.57 3587.16,-221.69 3597.73,-222.3 3595.81,-215.57"/>
</g>
<!-- main.tsx -->
<g id="node2" class="node">
<title>main.tsx</title>
<ellipse fill="lightblue" stroke="lightblue" cx="3612.34" cy="-306" rx="50.89" ry="18"/>
<text text-anchor="middle" x="3612.34" y="-302.3" font-family="Times,serif" font-size="14.00">main.tsx</text>
</g>
<!-- main.tsx&#45;&gt;App.tsx -->
<g id="edge5" class="edge">
<title>main.tsx&#45;&gt;App.tsx</title>
<path fill="none" stroke="black" d="M3591.82,-280.66C3583.69,-271.01 3574.55,-260.17 3567.22,-251.47"/>
<polygon fill="black" stroke="black" points="3589.23,-283.02 3598.36,-288.41 3594.59,-278.51 3589.23,-283.02"/>
</g>
<!-- index.css -->
<g id="node61" class="node">
<title>index.css</title>
<ellipse fill="yellow" stroke="yellow" cx="3671.34" cy="-234" rx="53.89" ry="18"/>
<text text-anchor="middle" x="3671.34" y="-230.3" font-family="Times,serif" font-size="14.00">index.css</text>
</g>
<!-- main.tsx&#45;&gt;index.css -->
<g id="edge6" class="edge">
<title>main.tsx&#45;&gt;index.css</title>
<path fill="none" stroke="black" d="M3632.85,-280.66C3640.98,-271.01 3650.12,-260.17 3657.46,-251.47"/>
<polygon fill="black" stroke="black" points="3630.09,-278.51 3626.32,-288.41 3635.44,-283.02 3630.09,-278.51"/>
</g>
<!-- components/ProjectsSection.tsx -->
<g id="node6" class="node">
<title>components/ProjectsSection.tsx</title>
<ellipse fill="lightblue" stroke="lightblue" cx="3222.34" cy="-90" rx="159.47" ry="18"/>
<text text-anchor="middle" x="3222.34" y="-86.3" font-family="Times,serif" font-size="14.00">components/ProjectsSection.tsx</text>
</g>
<!-- pages/Index.tsx&#45;&gt;components/ProjectsSection.tsx -->
<g id="edge12" class="edge">
<title>pages/Index.tsx&#45;&gt;components/ProjectsSection.tsx</title>
<path fill="none" stroke="black" d="M3222.34,-133.67C3222.34,-125.05 3222.34,-115.79 3222.34,-108.1"/>
<polygon fill="black" stroke="black" points="3218.84,-133.7 3222.34,-143.7 3225.84,-133.7 3218.84,-133.7"/>
</g>
<!-- components/Navbar.tsx -->
<g id="node7" class="node">
<title>components/Navbar.tsx</title>
<ellipse fill="lightblue" stroke="lightblue" cx="2340.34" cy="-90" rx="120.48" ry="18"/>
<text text-anchor="middle" x="2340.34" y="-86.3" font-family="Times,serif" font-size="14.00">components/Navbar.tsx</text>
</g>
<!-- pages/Index.tsx&#45;&gt;components/Navbar.tsx -->
<g id="edge7" class="edge">
<title>pages/Index.tsx&#45;&gt;components/Navbar.tsx</title>
<path fill="none" stroke="black" d="M3131.44,-156.35C2989.91,-148.71 2708.39,-131.93 2470.34,-108 2455.73,-106.53 2440.23,-104.72 2425.22,-102.84"/>
<polygon fill="black" stroke="black" points="3131.62,-159.86 3141.8,-156.9 3132,-152.87 3131.62,-159.86"/>
</g>
<!-- components/ExperienceSection.tsx -->
<g id="node8" class="node">
<title>components/ExperienceSection.tsx</title>
<ellipse fill="lightblue" stroke="lightblue" cx="3884.34" cy="-90" rx="173.57" ry="18"/>
<text text-anchor="middle" x="3884.34" y="-86.3" font-family="Times,serif" font-size="14.00">components/ExperienceSection.tsx</text>
</g>
<!-- pages/Index.tsx&#45;&gt;components/ExperienceSection.tsx -->
<g id="edge10" class="edge">
<title>pages/Index.tsx&#45;&gt;components/ExperienceSection.tsx</title>
<path fill="none" stroke="black" d="M3292.1,-147.56C3299.93,-146.26 3307.79,-145.04 3315.34,-144 3486.47,-120.45 3530.34,-124.03 3702.34,-108 3720.98,-106.26 3740.7,-104.42 3760,-102.62"/>
<polygon fill="black" stroke="black" points="3291.51,-144.11 3282.25,-149.25 3292.69,-151.01 3291.51,-144.11"/>
</g>
<!-- components/EducationSection.tsx -->
<g id="node9" class="node">
<title>components/EducationSection.tsx</title>
<ellipse fill="lightblue" stroke="lightblue" cx="4559.34" cy="-90" rx="168.17" ry="18"/>
<text text-anchor="middle" x="4559.34" y="-86.3" font-family="Times,serif" font-size="14.00">components/EducationSection.tsx</text>
</g>
<!-- pages/Index.tsx&#45;&gt;components/EducationSection.tsx -->
<g id="edge13" class="edge">
<title>pages/Index.tsx&#45;&gt;components/EducationSection.tsx</title>
<path fill="none" stroke="black" d="M3290.71,-147.32C3298.98,-146.02 3307.33,-144.86 3315.34,-144 3787.1,-93.2 3908.84,-138.7 4382.34,-108 4402.21,-106.71 4423.3,-104.99 4443.74,-103.14"/>
<polygon fill="black" stroke="black" points="3289.98,-143.9 3280.69,-148.98 3291.12,-150.8 3289.98,-143.9"/>
</g>
<!-- components/ContactSection.tsx -->
<g id="node10" class="node">
<title>components/ContactSection.tsx</title>
<ellipse fill="lightblue" stroke="lightblue" cx="2887.34" cy="-90" rx="157.07" ry="18"/>
<text text-anchor="middle" x="2887.34" y="-86.3" font-family="Times,serif" font-size="14.00">components/ContactSection.tsx</text>
</g>
<!-- pages/Index.tsx&#45;&gt;components/ContactSection.tsx -->
<g id="edge14" class="edge">
<title>pages/Index.tsx&#45;&gt;components/ContactSection.tsx</title>
<path fill="none" stroke="black" d="M3154.43,-146.81C3097.78,-134.97 3017.26,-118.15 2959.47,-106.07"/>
<polygon fill="black" stroke="black" points="3153.86,-150.27 3164.37,-148.89 3155.29,-143.42 3153.86,-150.27"/>
</g>
<!-- components/HeroSection.tsx -->
<g id="node11" class="node">
<title>components/HeroSection.tsx</title>
<ellipse fill="lightblue" stroke="lightblue" cx="2057.34" cy="-90" rx="144.07" ry="18"/>
<text text-anchor="middle" x="2057.34" y="-86.3" font-family="Times,serif" font-size="14.00">components/HeroSection.tsx</text>
</g>
<!-- pages/Index.tsx&#45;&gt;components/HeroSection.tsx -->
<g id="edge8" class="edge">
<title>pages/Index.tsx&#45;&gt;components/HeroSection.tsx</title>
<path fill="none" stroke="black" d="M3129.89,-157.94C2951.88,-151.64 2549.23,-135.48 2211.34,-108 2194.04,-106.59 2175.69,-104.82 2157.91,-102.95"/>
<polygon fill="black" stroke="black" points="3129.88,-161.44 3140,-158.29 3130.13,-154.44 3129.88,-161.44"/>
</g>
<!-- components/AboutSection.tsx -->
<g id="node12" class="node">
<title>components/AboutSection.tsx</title>
<ellipse fill="lightblue" stroke="lightblue" cx="4224.34" cy="-90" rx="148.67" ry="18"/>
<text text-anchor="middle" x="4224.34" y="-86.3" font-family="Times,serif" font-size="14.00">components/AboutSection.tsx</text>
</g>
<!-- pages/Index.tsx&#45;&gt;components/AboutSection.tsx -->
<g id="edge9" class="edge">
<title>pages/Index.tsx&#45;&gt;components/AboutSection.tsx</title>
<path fill="none" stroke="black" d="M3291.08,-147.38C3299.23,-146.07 3307.45,-144.91 3315.34,-144 3647.76,-105.83 3733.75,-134.02 4067.34,-108 4084.83,-106.64 4103.39,-104.89 4121.39,-103.04"/>
<polygon fill="black" stroke="black" points="3290.49,-143.93 3281.2,-149.02 3291.64,-150.83 3290.49,-143.93"/>
</g>
<!-- components/SkillsSection.tsx -->
<g id="node13" class="node">
<title>components/SkillsSection.tsx</title>
<ellipse fill="lightblue" stroke="lightblue" cx="3546.34" cy="-90" rx="146.77" ry="18"/>
<text text-anchor="middle" x="3546.34" y="-86.3" font-family="Times,serif" font-size="14.00">components/SkillsSection.tsx</text>
</g>
<!-- pages/Index.tsx&#45;&gt;components/SkillsSection.tsx -->
<g id="edge11" class="edge">
<title>pages/Index.tsx&#45;&gt;components/SkillsSection.tsx</title>
<path fill="none" stroke="black" d="M3289.13,-146.57C3344.06,-134.7 3421.63,-117.94 3477.19,-105.94"/>
<polygon fill="black" stroke="black" points="3288.18,-143.19 3279.14,-148.73 3289.66,-150.04 3288.18,-143.19"/>
</g>
<!-- components/Footer.tsx -->
<g id="node14" class="node">
<title>components/Footer.tsx</title>
<ellipse fill="lightblue" stroke="lightblue" cx="2595.34" cy="-90" rx="116.18" ry="18"/>
<text text-anchor="middle" x="2595.34" y="-86.3" font-family="Times,serif" font-size="14.00">components/Footer.tsx</text>
</g>
<!-- pages/Index.tsx&#45;&gt;components/Footer.tsx -->
<g id="edge15" class="edge">
<title>pages/Index.tsx&#45;&gt;components/Footer.tsx</title>
<path fill="none" stroke="black" d="M3137.55,-152.78C3037.85,-142.94 2867.42,-125.58 2721.34,-108 2707.53,-106.34 2692.89,-104.47 2678.66,-102.59"/>
<polygon fill="black" stroke="black" points="3137.27,-156.27 3147.57,-153.77 3137.96,-149.3 3137.27,-156.27"/>
</g>
<!-- hooks/use&#45;mobile.tsx -->
<g id="node5" class="node">
<title>hooks/use&#45;mobile.tsx</title>
<ellipse fill="red" stroke="red" cx="410.34" cy="-18" rx="107.78" ry="18"/>
<text text-anchor="middle" x="410.34" y="-14.3" font-family="Times,serif" font-size="14.00">hooks/use&#45;mobile.tsx</text>
</g>
<!-- components/ui/card.tsx -->
<g id="node25" class="node">
<title>components/ui/card.tsx</title>
<ellipse fill="lightblue" stroke="lightblue" cx="3583.34" cy="-18" rx="118.88" ry="18"/>
<text text-anchor="middle" x="3583.34" y="-14.3" font-family="Times,serif" font-size="14.00">components/ui/card.tsx</text>
</g>
<!-- components/ProjectsSection.tsx&#45;&gt;components/ui/card.tsx -->
<g id="edge16" class="edge">
<title>components/ProjectsSection.tsx&#45;&gt;components/ui/card.tsx</title>
<path fill="none" stroke="black" d="M3308.75,-72.24C3371.34,-60.11 3454.88,-43.91 3513.31,-32.58"/>
<polygon fill="black" stroke="black" points="3308.05,-68.82 3298.9,-74.15 3309.38,-75.69 3308.05,-68.82"/>
</g>
<!-- components/ui/badge.tsx -->
<g id="node26" class="node">
<title>components/ui/badge.tsx</title>
<ellipse fill="lightblue" stroke="lightblue" cx="3884.34" cy="-18" rx="126.98" ry="18"/>
<text text-anchor="middle" x="3884.34" y="-14.3" font-family="Times,serif" font-size="14.00">components/ui/badge.tsx</text>
</g>
<!-- components/ProjectsSection.tsx&#45;&gt;components/ui/badge.tsx -->
<g id="edge17" class="edge">
<title>components/ProjectsSection.tsx&#45;&gt;components/ui/badge.tsx</title>
<path fill="none" stroke="black" d="M3344.44,-76.09C3471.62,-62.64 3668.4,-41.83 3785.97,-29.4"/>
<polygon fill="black" stroke="black" points="3343.84,-72.63 3334.26,-77.17 3344.57,-79.59 3343.84,-72.63"/>
</g>
<!-- components/ui/button.tsx -->
<g id="node52" class="node">
<title>components/ui/button.tsx</title>
<ellipse fill="lightblue" stroke="lightblue" cx="1743.34" cy="-18" rx="129.18" ry="18"/>
<text text-anchor="middle" x="1743.34" y="-14.3" font-family="Times,serif" font-size="14.00">components/ui/button.tsx</text>
</g>
<!-- components/ProjectsSection.tsx&#45;&gt;components/ui/button.tsx -->
<g id="edge18" class="edge">
<title>components/ProjectsSection.tsx&#45;&gt;components/ui/button.tsx</title>
<path fill="none" stroke="black" d="M3101.86,-75.99C3085.56,-74.49 3069.05,-73.11 3053.34,-72 2619.95,-41.46 2104.57,-27 1870.4,-21.62"/>
<polygon fill="black" stroke="black" points="3101.68,-79.49 3111.97,-76.94 3102.34,-72.52 3101.68,-79.49"/>
</g>
<!-- components/Navbar.tsx&#45;&gt;components/ui/button.tsx -->
<g id="edge19" class="edge">
<title>components/Navbar.tsx&#45;&gt;components/ui/button.tsx</title>
<path fill="none" stroke="black" d="M2243.44,-76.14C2232.28,-74.72 2221.06,-73.31 2210.34,-72 2083.18,-56.47 1936.34,-40.06 1841.79,-29.68"/>
<polygon fill="black" stroke="black" points="2243.29,-79.65 2253.65,-77.46 2244.18,-72.71 2243.29,-79.65"/>
</g>
<!-- components/ExperienceSection.tsx&#45;&gt;components/ui/card.tsx -->
<g id="edge20" class="edge">
<title>components/ExperienceSection.tsx&#45;&gt;components/ui/card.tsx</title>
<path fill="none" stroke="black" d="M3807.3,-71.08C3756.98,-59.38 3692.13,-44.3 3645.18,-33.38"/>
<polygon fill="black" stroke="black" points="3806.63,-74.52 3817.16,-73.38 3808.21,-67.7 3806.63,-74.52"/>
</g>
<!-- components/ExperienceSection.tsx&#45;&gt;components/ui/badge.tsx -->
<g id="edge21" class="edge">
<title>components/ExperienceSection.tsx&#45;&gt;components/ui/badge.tsx</title>
<path fill="none" stroke="black" d="M3884.34,-61.67C3884.34,-53.05 3884.34,-43.79 3884.34,-36.1"/>
<polygon fill="black" stroke="black" points="3880.84,-61.7 3884.34,-71.7 3887.84,-61.7 3880.84,-61.7"/>
</g>
<!-- components/EducationSection.tsx&#45;&gt;components/ui/card.tsx -->
<g id="edge22" class="edge">
<title>components/EducationSection.tsx&#45;&gt;components/ui/card.tsx</title>
<path fill="none" stroke="black" d="M4431.54,-76.13C4414.99,-74.64 4398.27,-73.22 4382.34,-72 4100.93,-50.5 4029.67,-58.47 3748.34,-36 3724.94,-34.13 3699.72,-31.73 3676.2,-29.32"/>
<polygon fill="black" stroke="black" points="4431.53,-79.64 4441.81,-77.06 4432.17,-72.67 4431.53,-79.64"/>
</g>
<!-- components/EducationSection.tsx&#45;&gt;components/ui/badge.tsx -->
<g id="edge23" class="edge">
<title>components/EducationSection.tsx&#45;&gt;components/ui/badge.tsx</title>
<path fill="none" stroke="black" d="M4432.89,-75.89C4302.7,-62.39 4102.52,-41.63 3983.39,-29.27"/>
<polygon fill="black" stroke="black" points="4432.61,-79.38 4442.92,-76.93 4433.33,-72.41 4432.61,-79.38"/>
</g>
<!-- components/ui/input.tsx -->
<g id="node16" class="node">
<title>components/ui/input.tsx</title>
<ellipse fill="lightblue" stroke="lightblue" cx="1346.34" cy="-18" rx="122.68" ry="18"/>
<text text-anchor="middle" x="1346.34" y="-14.3" font-family="Times,serif" font-size="14.00">components/ui/input.tsx</text>
</g>
<!-- components/ContactSection.tsx&#45;&gt;components/ui/input.tsx -->
<g id="edge25" class="edge">
<title>components/ContactSection.tsx&#45;&gt;components/ui/input.tsx</title>
<path fill="none" stroke="black" d="M2769.04,-75.93C2752.7,-74.43 2736.11,-73.06 2720.34,-72 2225.63,-38.87 2100.56,-60.24 1605.34,-36 1555.38,-33.55 1500.05,-30.03 1453.4,-26.83"/>
<polygon fill="black" stroke="black" points="2768.9,-79.44 2779.18,-76.89 2769.55,-72.47 2768.9,-79.44"/>
</g>
<!-- components/ContactSection.tsx&#45;&gt;components/ui/card.tsx -->
<g id="edge24" class="edge">
<title>components/ContactSection.tsx&#45;&gt;components/ui/card.tsx</title>
<path fill="none" stroke="black" d="M3010.68,-76.42C3025.39,-74.93 3040.2,-73.43 3054.34,-72 3205.4,-56.74 3380.75,-39.21 3486.8,-28.63"/>
<polygon fill="black" stroke="black" points="3010.12,-72.96 3000.52,-77.45 3010.83,-79.92 3010.12,-72.96"/>
</g>
<!-- components/ContactSection.tsx&#45;&gt;components/ui/button.tsx -->
<g id="edge27" class="edge">
<title>components/ContactSection.tsx&#45;&gt;components/ui/button.tsx</title>
<path fill="none" stroke="black" d="M2767.07,-76.07C2751.36,-74.58 2735.47,-73.18 2720.34,-72 2413.38,-48.06 2051.34,-31.45 1866.08,-23.8"/>
<polygon fill="black" stroke="black" points="2767.07,-79.59 2777.36,-77.06 2767.74,-72.62 2767.07,-79.59"/>
</g>
<!-- components/ui/textarea.tsx -->
<g id="node57" class="node">
<title>components/ui/textarea.tsx</title>
<ellipse fill="lightblue" stroke="lightblue" cx="2887.34" cy="-18" rx="137.58" ry="18"/>
<text text-anchor="middle" x="2887.34" y="-14.3" font-family="Times,serif" font-size="14.00">components/ui/textarea.tsx</text>
</g>
<!-- components/ContactSection.tsx&#45;&gt;components/ui/textarea.tsx -->
<g id="edge26" class="edge">
<title>components/ContactSection.tsx&#45;&gt;components/ui/textarea.tsx</title>
<path fill="none" stroke="black" d="M2887.34,-61.67C2887.34,-53.05 2887.34,-43.79 2887.34,-36.1"/>
<polygon fill="black" stroke="black" points="2883.84,-61.7 2887.34,-71.7 2890.84,-61.7 2883.84,-61.7"/>
</g>
<!-- components/HeroSection.tsx&#45;&gt;components/ui/button.tsx -->
<g id="edge28" class="edge">
<title>components/HeroSection.tsx&#45;&gt;components/ui/button.tsx</title>
<path fill="none" stroke="black" d="M1980.02,-71.76C1927.41,-60.04 1858.57,-44.69 1808.7,-33.57"/>
<polygon fill="black" stroke="black" points="1979.45,-75.22 1989.98,-73.98 1980.98,-68.39 1979.45,-75.22"/>
</g>
<!-- components/AboutSection.tsx&#45;&gt;components/ui/card.tsx -->
<g id="edge29" class="edge">
<title>components/AboutSection.tsx&#45;&gt;components/ui/card.tsx</title>
<path fill="none" stroke="black" d="M4107.49,-76.24C3983.68,-62.72 3790.63,-41.64 3676.6,-29.18"/>
<polygon fill="black" stroke="black" points="4107.45,-79.76 4117.77,-77.36 4108.21,-72.8 4107.45,-79.76"/>
</g>
<!-- components/AboutSection.tsx&#45;&gt;components/ui/badge.tsx -->
<g id="edge30" class="edge">
<title>components/AboutSection.tsx&#45;&gt;components/ui/badge.tsx</title>
<path fill="none" stroke="black" d="M4142.39,-72.13C4084.52,-60.21 4007.85,-44.43 3953.15,-33.17"/>
<polygon fill="black" stroke="black" points="4141.73,-75.57 4152.23,-74.15 4143.14,-68.71 4141.73,-75.57"/>
</g>
<!-- components/SkillsSection.tsx&#45;&gt;components/ui/card.tsx -->
<g id="edge31" class="edge">
<title>components/SkillsSection.tsx&#45;&gt;components/ui/card.tsx</title>
<path fill="none" stroke="black" d="M3560.19,-62.8C3564.91,-53.87 3570.05,-44.13 3574.3,-36.1"/>
<polygon fill="black" stroke="black" points="3557.06,-61.22 3555.48,-71.7 3563.25,-64.49 3557.06,-61.22"/>
</g>
<!-- components/SkillsSection.tsx&#45;&gt;components/ui/badge.tsx -->
<g id="edge32" class="edge">
<title>components/SkillsSection.tsx&#45;&gt;components/ui/badge.tsx</title>
<path fill="none" stroke="black" d="M3627.75,-72.14C3685.22,-60.24 3761.38,-44.46 3815.76,-33.2"/>
<polygon fill="black" stroke="black" points="3626.69,-68.79 3617.61,-74.24 3628.11,-75.64 3626.69,-68.79"/>
</g>
<!-- components/ui/popover.tsx -->
<g id="node15" class="node">
<title>components/ui/popover.tsx</title>
<ellipse fill="orange" stroke="orange" cx="3816.34" cy="-306" rx="135.38" ry="18"/>
<text text-anchor="middle" x="3816.34" y="-302.3" font-family="Times,serif" font-size="14.00">components/ui/popover.tsx</text>
</g>
<!-- components/ui/checkbox.tsx -->
<g id="node17" class="node">
<title>components/ui/checkbox.tsx</title>
<ellipse fill="orange" stroke="orange" cx="4111.34" cy="-306" rx="141.88" ry="18"/>
<text text-anchor="middle" x="4111.34" y="-302.3" font-family="Times,serif" font-size="14.00">components/ui/checkbox.tsx</text>
</g>
<!-- components/ui/select.tsx -->
<g id="node18" class="node">
<title>components/ui/select.tsx</title>
<ellipse fill="orange" stroke="orange" cx="4397.34" cy="-306" rx="126.18" ry="18"/>
<text text-anchor="middle" x="4397.34" y="-302.3" font-family="Times,serif" font-size="14.00">components/ui/select.tsx</text>
</g>
<!-- components/ui/table.tsx -->
<g id="node19" class="node">
<title>components/ui/table.tsx</title>
<ellipse fill="orange" stroke="orange" cx="4663.34" cy="-306" rx="122.38" ry="18"/>
<text text-anchor="middle" x="4663.34" y="-302.3" font-family="Times,serif" font-size="14.00">components/ui/table.tsx</text>
</g>
<!-- components/ui/breadcrumb.tsx -->
<g id="node20" class="node">
<title>components/ui/breadcrumb.tsx</title>
<ellipse fill="orange" stroke="orange" cx="4959.34" cy="-306" rx="155.17" ry="18"/>
<text text-anchor="middle" x="4959.34" y="-302.3" font-family="Times,serif" font-size="14.00">components/ui/breadcrumb.tsx</text>
</g>
<!-- components/ui/dropdown&#45;menu.tsx -->
<g id="node21" class="node">
<title>components/ui/dropdown&#45;menu.tsx</title>
<ellipse fill="orange" stroke="orange" cx="5306.34" cy="-306" rx="173.57" ry="18"/>
<text text-anchor="middle" x="5306.34" y="-302.3" font-family="Times,serif" font-size="14.00">components/ui/dropdown&#45;menu.tsx</text>
</g>
<!-- components/ui/radio&#45;group.tsx -->
<g id="node22" class="node">
<title>components/ui/radio&#45;group.tsx</title>
<ellipse fill="orange" stroke="orange" cx="5650.34" cy="-306" rx="152.97" ry="18"/>
<text text-anchor="middle" x="5650.34" y="-302.3" font-family="Times,serif" font-size="14.00">components/ui/radio&#45;group.tsx</text>
</g>
<!-- components/ui/form.tsx -->
<g id="node23" class="node">
<title>components/ui/form.tsx</title>
<ellipse fill="orange" stroke="orange" cx="5941.34" cy="-306" rx="120.48" ry="18"/>
<text text-anchor="middle" x="5941.34" y="-302.3" font-family="Times,serif" font-size="14.00">components/ui/form.tsx</text>
</g>
<!-- components/ui/label.tsx -->
<g id="node51" class="node">
<title>components/ui/label.tsx</title>
<ellipse fill="orange" stroke="orange" cx="5941.34" cy="-234" rx="120.78" ry="18"/>
<text text-anchor="middle" x="5941.34" y="-230.3" font-family="Times,serif" font-size="14.00">components/ui/label.tsx</text>
</g>
<!-- components/ui/form.tsx&#45;&gt;components/ui/label.tsx -->
<g id="edge33" class="edge">
<title>components/ui/form.tsx&#45;&gt;components/ui/label.tsx</title>
<path fill="none" stroke="black" d="M5941.34,-277.67C5941.34,-269.05 5941.34,-259.79 5941.34,-252.1"/>
<polygon fill="black" stroke="black" points="5937.84,-277.7 5941.34,-287.7 5944.84,-277.7 5937.84,-277.7"/>
</g>
<!-- components/ui/input&#45;otp.tsx -->
<g id="node24" class="node">
<title>components/ui/input&#45;otp.tsx</title>
<ellipse fill="orange" stroke="orange" cx="6220.34" cy="-306" rx="141.07" ry="18"/>
<text text-anchor="middle" x="6220.34" y="-302.3" font-family="Times,serif" font-size="14.00">components/ui/input&#45;otp.tsx</text>
</g>
<!-- components/ui/skeleton.tsx -->
<g id="node27" class="node">
<title>components/ui/skeleton.tsx</title>
<ellipse fill="orange" stroke="orange" cx="674.34" cy="-18" rx="137.58" ry="18"/>
<text text-anchor="middle" x="674.34" y="-14.3" font-family="Times,serif" font-size="14.00">components/ui/skeleton.tsx</text>
</g>
<!-- components/ui/aspect&#45;ratio.tsx -->
<g id="node28" class="node">
<title>components/ui/aspect&#45;ratio.tsx</title>
<ellipse fill="orange" stroke="orange" cx="6532.34" cy="-306" rx="153.27" ry="18"/>
<text text-anchor="middle" x="6532.34" y="-302.3" font-family="Times,serif" font-size="14.00">components/ui/aspect&#45;ratio.tsx</text>
</g>
<!-- components/ui/drawer.tsx -->
<g id="node29" class="node">
<title>components/ui/drawer.tsx</title>
<ellipse fill="orange" stroke="orange" cx="6834.34" cy="-306" rx="130.78" ry="18"/>
<text text-anchor="middle" x="6834.34" y="-302.3" font-family="Times,serif" font-size="14.00">components/ui/drawer.tsx</text>
</g>
<!-- components/ui/toggle&#45;group.tsx -->
<g id="node30" class="node">
<title>components/ui/toggle&#45;group.tsx</title>
<ellipse fill="orange" stroke="orange" cx="7141.34" cy="-306" rx="157.87" ry="18"/>
<text text-anchor="middle" x="7141.34" y="-302.3" font-family="Times,serif" font-size="14.00">components/ui/toggle&#45;group.tsx</text>
</g>
<!-- components/ui/toggle.tsx -->
<g id="node53" class="node">
<title>components/ui/toggle.tsx</title>
<ellipse fill="orange" stroke="orange" cx="7141.34" cy="-234" rx="128.08" ry="18"/>
<text text-anchor="middle" x="7141.34" y="-230.3" font-family="Times,serif" font-size="14.00">components/ui/toggle.tsx</text>
</g>
<!-- components/ui/toggle&#45;group.tsx&#45;&gt;components/ui/toggle.tsx -->
<g id="edge34" class="edge">
<title>components/ui/toggle&#45;group.tsx&#45;&gt;components/ui/toggle.tsx</title>
<path fill="none" stroke="black" d="M7141.34,-277.67C7141.34,-269.05 7141.34,-259.79 7141.34,-252.1"/>
<polygon fill="black" stroke="black" points="7137.84,-277.7 7141.34,-287.7 7144.84,-277.7 7137.84,-277.7"/>
</g>
<!-- components/ui/hover&#45;card.tsx -->
<g id="node31" class="node">
<title>components/ui/hover&#45;card.tsx</title>
<ellipse fill="orange" stroke="orange" cx="7465.34" cy="-306" rx="148.37" ry="18"/>
<text text-anchor="middle" x="7465.34" y="-302.3" font-family="Times,serif" font-size="14.00">components/ui/hover&#45;card.tsx</text>
</g>
<!-- components/ui/collapsible.tsx -->
<g id="node32" class="node">
<title>components/ui/collapsible.tsx</title>
<ellipse fill="orange" stroke="orange" cx="7779.34" cy="-306" rx="147.57" ry="18"/>
<text text-anchor="middle" x="7779.34" y="-302.3" font-family="Times,serif" font-size="14.00">components/ui/collapsible.tsx</text>
</g>
<!-- components/ui/chart.tsx -->
<g id="node33" class="node">
<title>components/ui/chart.tsx</title>
<ellipse fill="orange" stroke="orange" cx="8067.34" cy="-306" rx="122.68" ry="18"/>
<text text-anchor="middle" x="8067.34" y="-302.3" font-family="Times,serif" font-size="14.00">components/ui/chart.tsx</text>
</g>
<!-- components/ui/sheet.tsx -->
<g id="node34" class="node">
<title>components/ui/sheet.tsx</title>
<ellipse fill="orange" stroke="orange" cx="954.34" cy="-18" rx="124.28" ry="18"/>
<text text-anchor="middle" x="954.34" y="-14.3" font-family="Times,serif" font-size="14.00">components/ui/sheet.tsx</text>
</g>
<!-- components/ui/navigation&#45;menu.tsx -->
<g id="node35" class="node">
<title>components/ui/navigation&#45;menu.tsx</title>
<ellipse fill="orange" stroke="orange" cx="8384.34" cy="-306" rx="176.27" ry="18"/>
<text text-anchor="middle" x="8384.34" y="-302.3" font-family="Times,serif" font-size="14.00">components/ui/navigation&#45;menu.tsx</text>
</g>
<!-- components/ui/sidebar.tsx -->
<g id="node36" class="node">
<title>components/ui/sidebar.tsx</title>
<ellipse fill="orange" stroke="orange" cx="542.34" cy="-90" rx="131.88" ry="18"/>
<text text-anchor="middle" x="542.34" y="-86.3" font-family="Times,serif" font-size="14.00">components/ui/sidebar.tsx</text>
</g>
<!-- components/ui/sidebar.tsx&#45;&gt;hooks/use&#45;mobile.tsx -->
<g id="edge35" class="edge">
<title>components/ui/sidebar.tsx&#45;&gt;hooks/use&#45;mobile.tsx</title>
<path fill="none" stroke="black" d="M502.09,-67.66C482.58,-57.31 459.52,-45.08 441.39,-35.47"/>
<polygon fill="black" stroke="black" points="500.58,-70.82 511.06,-72.41 503.86,-64.63 500.58,-70.82"/>
</g>
<!-- components/ui/sidebar.tsx&#45;&gt;components/ui/input.tsx -->
<g id="edge37" class="edge">
<title>components/ui/sidebar.tsx&#45;&gt;components/ui/input.tsx</title>
<path fill="none" stroke="black" d="M645.26,-76.01C657.74,-74.58 670.32,-73.21 682.34,-72 877.51,-52.37 1105.56,-35.48 1237.23,-26.32"/>
<polygon fill="black" stroke="black" points="644.81,-72.54 635.28,-77.17 645.62,-79.49 644.81,-72.54"/>
</g>
<!-- components/ui/sidebar.tsx&#45;&gt;components/ui/skeleton.tsx -->
<g id="edge40" class="edge">
<title>components/ui/sidebar.tsx&#45;&gt;components/ui/skeleton.tsx</title>
<path fill="none" stroke="black" d="M582.52,-67.69C601.87,-57.43 624.75,-45.3 642.82,-35.71"/>
<polygon fill="black" stroke="black" points="580.81,-64.63 573.62,-72.41 584.09,-70.82 580.81,-64.63"/>
</g>
<!-- components/ui/sidebar.tsx&#45;&gt;components/ui/sheet.tsx -->
<g id="edge39" class="edge">
<title>components/ui/sidebar.tsx&#45;&gt;components/ui/sheet.tsx</title>
<path fill="none" stroke="black" d="M631.89,-73.78C705.01,-61.36 807.27,-43.99 876.89,-32.16"/>
<polygon fill="black" stroke="black" points="631.05,-70.38 621.78,-75.5 632.22,-77.28 631.05,-70.38"/>
</g>
<!-- components/ui/sidebar.tsx&#45;&gt;components/ui/button.tsx -->
<g id="edge36" class="edge">
<title>components/ui/sidebar.tsx&#45;&gt;components/ui/button.tsx</title>
<path fill="none" stroke="black" d="M643.34,-75.81C656.44,-74.37 669.7,-73.05 682.34,-72 1035.26,-42.63 1124.73,-55.34 1478.34,-36 1528.17,-33.28 1583.24,-29.81 1630.21,-26.73"/>
<polygon fill="black" stroke="black" points="642.91,-72.34 633.36,-76.94 643.69,-79.3 642.91,-72.34"/>
</g>
<!-- components/ui/separator.tsx -->
<g id="node55" class="node">
<title>components/ui/separator.tsx</title>
<ellipse fill="orange" stroke="orange" cx="142.34" cy="-18" rx="142.17" ry="18"/>
<text text-anchor="middle" x="142.34" y="-14.3" font-family="Times,serif" font-size="14.00">components/ui/separator.tsx</text>
</g>
<!-- components/ui/sidebar.tsx&#45;&gt;components/ui/separator.tsx -->
<g id="edge38" class="edge">
<title>components/ui/sidebar.tsx&#45;&gt;components/ui/separator.tsx</title>
<path fill="none" stroke="black" d="M454.71,-73.66C385.36,-61.53 289.33,-44.72 222.12,-32.96"/>
<polygon fill="black" stroke="black" points="454.29,-77.14 464.74,-75.42 455.49,-70.25 454.29,-77.14"/>
</g>
<!-- components/ui/switch.tsx -->
<g id="node37" class="node">
<title>components/ui/switch.tsx</title>
<ellipse fill="orange" stroke="orange" cx="8707.34" cy="-306" rx="128.88" ry="18"/>
<text text-anchor="middle" x="8707.34" y="-302.3" font-family="Times,serif" font-size="14.00">components/ui/switch.tsx</text>
</g>
<!-- components/ui/command.tsx -->
<g id="node38" class="node">
<title>components/ui/command.tsx</title>
<ellipse fill="orange" stroke="orange" cx="8997.34" cy="-306" rx="143.77" ry="18"/>
<text text-anchor="middle" x="8997.34" y="-302.3" font-family="Times,serif" font-size="14.00">components/ui/command.tsx</text>
</g>
<!-- components/ui/dialog.tsx -->
<g id="node58" class="node">
<title>components/ui/dialog.tsx</title>
<ellipse fill="orange" stroke="orange" cx="8997.34" cy="-234" rx="126.98" ry="18"/>
<text text-anchor="middle" x="8997.34" y="-230.3" font-family="Times,serif" font-size="14.00">components/ui/dialog.tsx</text>
</g>
<!-- components/ui/command.tsx&#45;&gt;components/ui/dialog.tsx -->
<g id="edge41" class="edge">
<title>components/ui/command.tsx&#45;&gt;components/ui/dialog.tsx</title>
<path fill="none" stroke="black" d="M8997.34,-277.67C8997.34,-269.05 8997.34,-259.79 8997.34,-252.1"/>
<polygon fill="black" stroke="black" points="8993.84,-277.7 8997.34,-287.7 9000.84,-277.7 8993.84,-277.7"/>
</g>
<!-- components/ui/accordion.tsx -->
<g id="node39" class="node">
<title>components/ui/accordion.tsx</title>
<ellipse fill="orange" stroke="orange" cx="9302.34" cy="-306" rx="143.77" ry="18"/>
<text text-anchor="middle" x="9302.34" y="-302.3" font-family="Times,serif" font-size="14.00">components/ui/accordion.tsx</text>
</g>
<!-- components/ui/context&#45;menu.tsx -->
<g id="node40" class="node">
<title>components/ui/context&#45;menu.tsx</title>
<ellipse fill="orange" stroke="orange" cx="9625.34" cy="-306" rx="161.67" ry="18"/>
<text text-anchor="middle" x="9625.34" y="-302.3" font-family="Times,serif" font-size="14.00">components/ui/context&#45;menu.tsx</text>
</g>
<!-- components/ui/avatar.tsx -->
<g id="node41" class="node">
<title>components/ui/avatar.tsx</title>
<ellipse fill="orange" stroke="orange" cx="9932.34" cy="-306" rx="127.28" ry="18"/>
<text text-anchor="middle" x="9932.34" y="-302.3" font-family="Times,serif" font-size="14.00">components/ui/avatar.tsx</text>
</g>
<!-- components/ui/progress.tsx -->
<g id="node43" class="node">
<title>components/ui/progress.tsx</title>
<ellipse fill="orange" stroke="orange" cx="10217.34" cy="-306" rx="139.98" ry="18"/>
<text text-anchor="middle" x="10217.34" y="-302.3" font-family="Times,serif" font-size="14.00">components/ui/progress.tsx</text>
</g>
<!-- components/ui/carousel.tsx -->
<g id="node44" class="node">
<title>components/ui/carousel.tsx</title>
<ellipse fill="orange" stroke="orange" cx="1142.34" cy="-90" rx="137.58" ry="18"/>
<text text-anchor="middle" x="1142.34" y="-86.3" font-family="Times,serif" font-size="14.00">components/ui/carousel.tsx</text>
</g>
<!-- components/ui/carousel.tsx&#45;&gt;components/ui/button.tsx -->
<g id="edge42" class="edge">
<title>components/ui/carousel.tsx&#45;&gt;components/ui/button.tsx</title>
<path fill="none" stroke="black" d="M1251.65,-76.27C1364.72,-63.1 1539.56,-42.73 1647.43,-30.17"/>
<polygon fill="black" stroke="black" points="1251.11,-72.81 1241.58,-77.44 1251.92,-79.76 1251.11,-72.81"/>
</g>
<!-- components/ui/calendar.tsx -->
<g id="node45" class="node">
<title>components/ui/calendar.tsx</title>
<ellipse fill="orange" stroke="orange" cx="1436.34" cy="-90" rx="137.58" ry="18"/>
<text text-anchor="middle" x="1436.34" y="-86.3" font-family="Times,serif" font-size="14.00">components/ui/calendar.tsx</text>
</g>
<!-- components/ui/calendar.tsx&#45;&gt;components/ui/button.tsx -->
<g id="edge43" class="edge">
<title>components/ui/calendar.tsx&#45;&gt;components/ui/button.tsx</title>
<path fill="none" stroke="black" d="M1511.86,-71.78C1563.15,-60.08 1630.26,-44.78 1679.01,-33.67"/>
<polygon fill="black" stroke="black" points="1510.79,-68.43 1501.82,-74.07 1512.35,-75.26 1510.79,-68.43"/>
</g>
<!-- components/ui/scroll&#45;area.tsx -->
<g id="node46" class="node">
<title>components/ui/scroll&#45;area.tsx</title>
<ellipse fill="orange" stroke="orange" cx="10522.34" cy="-306" rx="147.57" ry="18"/>
<text text-anchor="middle" x="10522.34" y="-302.3" font-family="Times,serif" font-size="14.00">components/ui/scroll&#45;area.tsx</text>
</g>
<!-- components/ui/menubar.tsx -->
<g id="node47" class="node">
<title>components/ui/menubar.tsx</title>
<ellipse fill="orange" stroke="orange" cx="10827.34" cy="-306" rx="139.18" ry="18"/>
<text text-anchor="middle" x="10827.34" y="-302.3" font-family="Times,serif" font-size="14.00">components/ui/menubar.tsx</text>
</g>
<!-- components/ui/alert&#45;dialog.tsx -->
<g id="node48" class="node">
<title>components/ui/alert&#45;dialog.tsx</title>
<ellipse fill="orange" stroke="orange" cx="1743.34" cy="-90" rx="151.37" ry="18"/>
<text text-anchor="middle" x="1743.34" y="-86.3" font-family="Times,serif" font-size="14.00">components/ui/alert&#45;dialog.tsx</text>
</g>
<!-- components/ui/alert&#45;dialog.tsx&#45;&gt;components/ui/button.tsx -->
<g id="edge44" class="edge">
<title>components/ui/alert&#45;dialog.tsx&#45;&gt;components/ui/button.tsx</title>
<path fill="none" stroke="black" d="M1743.34,-61.67C1743.34,-53.05 1743.34,-43.79 1743.34,-36.1"/>
<polygon fill="black" stroke="black" points="1739.84,-61.7 1743.34,-71.7 1746.84,-61.7 1739.84,-61.7"/>
</g>
<!-- components/ui/alert.tsx -->
<g id="node49" class="node">
<title>components/ui/alert.tsx</title>
<ellipse fill="orange" stroke="orange" cx="11104.34" cy="-306" rx="120.48" ry="18"/>
<text text-anchor="middle" x="11104.34" y="-302.3" font-family="Times,serif" font-size="14.00">components/ui/alert.tsx</text>
</g>
<!-- components/ui/tabs.tsx -->
<g id="node50" class="node">
<title>components/ui/tabs.tsx</title>
<ellipse fill="orange" stroke="orange" cx="11361.34" cy="-306" rx="118.08" ry="18"/>
<text text-anchor="middle" x="11361.34" y="-302.3" font-family="Times,serif" font-size="14.00">components/ui/tabs.tsx</text>
</g>
<!-- components/ui/resizable.tsx -->
<g id="node54" class="node">
<title>components/ui/resizable.tsx</title>
<ellipse fill="orange" stroke="orange" cx="11638.34" cy="-306" rx="140.28" ry="18"/>
<text text-anchor="middle" x="11638.34" y="-302.3" font-family="Times,serif" font-size="14.00">components/ui/resizable.tsx</text>
</g>
<!-- components/ui/slider.tsx -->
<g id="node59" class="node">
<title>components/ui/slider.tsx</title>
<ellipse fill="orange" stroke="orange" cx="11921.34" cy="-306" rx="124.28" ry="18"/>
<text text-anchor="middle" x="11921.34" y="-302.3" font-family="Times,serif" font-size="14.00">components/ui/slider.tsx</text>
</g>
<!-- components/ui/pagination.tsx -->
<g id="node60" class="node">
<title>components/ui/pagination.tsx</title>
<ellipse fill="orange" stroke="orange" cx="839.34" cy="-90" rx="147.57" ry="18"/>
<text text-anchor="middle" x="839.34" y="-86.3" font-family="Times,serif" font-size="14.00">components/ui/pagination.tsx</text>
</g>
<!-- components/ui/pagination.tsx&#45;&gt;components/ui/button.tsx -->
<g id="edge45" class="edge">
<title>components/ui/pagination.tsx&#45;&gt;components/ui/button.tsx</title>
<path fill="none" stroke="black" d="M953.21,-76.09C967.39,-74.63 981.69,-73.23 995.34,-72 1115.03,-61.24 1451.13,-38.43 1629.24,-26.55"/>
<polygon fill="black" stroke="black" points="952.5,-72.64 942.92,-77.16 953.22,-79.6 952.5,-72.64"/>
</g>
<!-- App.css -->
<g id="node62" class="node">
<title>App.css</title>
<ellipse fill="yellow" stroke="yellow" cx="12109.34" cy="-306" rx="46.29" ry="18"/>
<text text-anchor="middle" x="12109.34" y="-302.3" font-family="Times,serif" font-size="14.00">App.css</text>
</g>
</g>
</svg>
