<?xml version="1.0" encoding="UTF-8" standalone="no"?>
<!DOCTYPE svg PUBLIC "-//W3C//DTD SVG 1.1//EN"
 "http://www.w3.org/Graphics/SVG/1.1/DTD/svg11.dtd">
<!-- Generated by graphviz version 2.43.0 (0)
 -->
<!-- Title: %3 Pages: 1 -->
<svg width="11672pt" height="332pt"
 viewBox="0.00 0.00 11671.58 332.00" xmlns="http://www.w3.org/2000/svg" xmlns:xlink="http://www.w3.org/1999/xlink">
<g id="graph0" class="graph" transform="scale(1 1) rotate(0) translate(4 328)">
<title>%3</title>
<polygon fill="white" stroke="transparent" points="-4,4 -4,-328 11667.58,-328 11667.58,4 -4,4"/>
<!-- App.tsx -->
<g id="node1" class="node">
<title>App.tsx</title>
<ellipse fill="lightblue" stroke="lightblue" cx="1649.44" cy="-234" rx="46.29" ry="18"/>
<text text-anchor="middle" x="1649.44" y="-230.3" font-family="Times,serif" font-size="14.00">App.tsx</text>
</g>
<!-- pages/Index.tsx -->
<g id="node3" class="node">
<title>pages/Index.tsx</title>
<ellipse fill="lightblue" stroke="lightblue" cx="1418.44" cy="-162" rx="83.69" ry="18"/>
<text text-anchor="middle" x="1418.44" y="-158.3" font-family="Times,serif" font-size="14.00">pages/Index.tsx</text>
</g>
<!-- App.tsx&#45;&gt;pages/Index.tsx -->
<g id="edge3" class="edge">
<title>App.tsx&#45;&gt;pages/Index.tsx</title>
<path fill="none" stroke="black" d="M1604.3,-219.32C1564.11,-207.14 1505.55,-189.4 1464.95,-177.09"/>
<polygon fill="black" stroke="black" points="1603.52,-222.74 1614.1,-222.29 1605.55,-216.04 1603.52,-222.74"/>
</g>
<!-- components/ui/sonner.tsx -->
<g id="node34" class="node">
<title>components/ui/sonner.tsx</title>
<ellipse fill="lightblue" stroke="lightblue" cx="1649.44" cy="-162" rx="129.18" ry="18"/>
<text text-anchor="middle" x="1649.44" y="-158.3" font-family="Times,serif" font-size="14.00">components/ui/sonner.tsx</text>
</g>
<!-- App.tsx&#45;&gt;components/ui/sonner.tsx -->
<g id="edge1" class="edge">
<title>App.tsx&#45;&gt;components/ui/sonner.tsx</title>
<path fill="none" stroke="black" d="M1649.44,-205.67C1649.44,-197.05 1649.44,-187.79 1649.44,-180.1"/>
<polygon fill="black" stroke="black" points="1645.94,-205.7 1649.44,-215.7 1652.94,-205.7 1645.94,-205.7"/>
</g>
<!-- components/ui/tooltip.tsx -->
<g id="node48" class="node">
<title>components/ui/tooltip.tsx</title>
<ellipse fill="lightblue" stroke="lightblue" cx="1925.44" cy="-162" rx="128.88" ry="18"/>
<text text-anchor="middle" x="1925.44" y="-158.3" font-family="Times,serif" font-size="14.00">components/ui/tooltip.tsx</text>
</g>
<!-- App.tsx&#45;&gt;components/ui/tooltip.tsx -->
<g id="edge2" class="edge">
<title>App.tsx&#45;&gt;components/ui/tooltip.tsx</title>
<path fill="none" stroke="black" d="M1693.6,-219.08C1697.25,-218.01 1700.9,-216.97 1704.44,-216 1756.38,-201.76 1815.76,-187.64 1859.88,-177.56"/>
<polygon fill="black" stroke="black" points="1692.54,-215.74 1683.96,-221.96 1694.54,-222.45 1692.54,-215.74"/>
</g>
<!-- main.tsx -->
<g id="node2" class="node">
<title>main.tsx</title>
<ellipse fill="lightblue" stroke="lightblue" cx="1708.44" cy="-306" rx="50.89" ry="18"/>
<text text-anchor="middle" x="1708.44" y="-302.3" font-family="Times,serif" font-size="14.00">main.tsx</text>
</g>
<!-- main.tsx&#45;&gt;App.tsx -->
<g id="edge4" class="edge">
<title>main.tsx&#45;&gt;App.tsx</title>
<path fill="none" stroke="black" d="M1687.92,-280.66C1679.79,-271.01 1670.65,-260.17 1663.32,-251.47"/>
<polygon fill="black" stroke="black" points="1685.33,-283.02 1694.45,-288.41 1690.69,-278.51 1685.33,-283.02"/>
</g>
<!-- index.css -->
<g id="node53" class="node">
<title>index.css</title>
<ellipse fill="yellow" stroke="yellow" cx="1767.44" cy="-234" rx="53.89" ry="18"/>
<text text-anchor="middle" x="1767.44" y="-230.3" font-family="Times,serif" font-size="14.00">index.css</text>
</g>
<!-- main.tsx&#45;&gt;index.css -->
<g id="edge5" class="edge">
<title>main.tsx&#45;&gt;index.css</title>
<path fill="none" stroke="black" d="M1728.95,-280.66C1737.08,-271.01 1746.22,-260.17 1753.55,-251.47"/>
<polygon fill="black" stroke="black" points="1726.19,-278.51 1722.42,-288.41 1731.54,-283.02 1726.19,-278.51"/>
</g>
<!-- components/BlogCard.tsx -->
<g id="node4" class="node">
<title>components/BlogCard.tsx</title>
<ellipse fill="lightblue" stroke="lightblue" cx="2100.44" cy="-90" rx="129.98" ry="18"/>
<text text-anchor="middle" x="2100.44" y="-86.3" font-family="Times,serif" font-size="14.00">components/BlogCard.tsx</text>
</g>
<!-- pages/Index.tsx&#45;&gt;components/BlogCard.tsx -->
<g id="edge7" class="edge">
<title>pages/Index.tsx&#45;&gt;components/BlogCard.tsx</title>
<path fill="none" stroke="black" d="M1487.83,-147.52C1495.78,-146.22 1503.77,-145.01 1511.44,-144 1709.49,-118.01 1760.68,-127.96 1959.44,-108 1975.14,-106.42 1991.8,-104.57 2007.96,-102.68"/>
<polygon fill="black" stroke="black" points="1487.1,-144.1 1477.83,-149.22 1488.28,-151 1487.1,-144.1"/>
</g>
<!-- components/Navbar.tsx -->
<g id="node5" class="node">
<title>components/Navbar.tsx</title>
<ellipse fill="lightblue" stroke="lightblue" cx="754.44" cy="-90" rx="120.48" ry="18"/>
<text text-anchor="middle" x="754.44" y="-86.3" font-family="Times,serif" font-size="14.00">components/Navbar.tsx</text>
</g>
<!-- pages/Index.tsx&#45;&gt;components/Navbar.tsx -->
<g id="edge8" class="edge">
<title>pages/Index.tsx&#45;&gt;components/Navbar.tsx</title>
<path fill="none" stroke="black" d="M1332.62,-153.36C1226.87,-143.74 1041.75,-126.27 883.44,-108 869.41,-106.38 854.55,-104.54 840.08,-102.68"/>
<polygon fill="black" stroke="black" points="1332.33,-156.85 1342.6,-154.26 1332.96,-149.88 1332.33,-156.85"/>
</g>
<!-- components/Hero.tsx -->
<g id="node6" class="node">
<title>components/Hero.tsx</title>
<ellipse fill="lightblue" stroke="lightblue" cx="1002.44" cy="-90" rx="109.68" ry="18"/>
<text text-anchor="middle" x="1002.44" y="-86.3" font-family="Times,serif" font-size="14.00">components/Hero.tsx</text>
</g>
<!-- pages/Index.tsx&#45;&gt;components/Hero.tsx -->
<g id="edge6" class="edge">
<title>pages/Index.tsx&#45;&gt;components/Hero.tsx</title>
<path fill="none" stroke="black" d="M1344.4,-148.54C1268.66,-135.8 1151.67,-116.11 1076.07,-103.39"/>
<polygon fill="black" stroke="black" points="1343.91,-152.01 1354.35,-150.22 1345.07,-145.1 1343.91,-152.01"/>
</g>
<!-- components/Footer.tsx -->
<g id="node7" class="node">
<title>components/Footer.tsx</title>
<ellipse fill="lightblue" stroke="lightblue" cx="1834.44" cy="-90" rx="116.18" ry="18"/>
<text text-anchor="middle" x="1834.44" y="-86.3" font-family="Times,serif" font-size="14.00">components/Footer.tsx</text>
</g>
<!-- pages/Index.tsx&#45;&gt;components/Footer.tsx -->
<g id="edge9" class="edge">
<title>pages/Index.tsx&#45;&gt;components/Footer.tsx</title>
<path fill="none" stroke="black" d="M1489.67,-147.84C1497.02,-146.53 1504.38,-145.22 1511.44,-144 1595,-129.51 1690.92,-113.9 1756.38,-103.4"/>
<polygon fill="black" stroke="black" points="1488.91,-144.42 1479.69,-149.64 1490.15,-151.31 1488.91,-144.42"/>
</g>
<!-- components/ui/badge.tsx -->
<g id="node19" class="node">
<title>components/ui/badge.tsx</title>
<ellipse fill="lightblue" stroke="lightblue" cx="2101.44" cy="-18" rx="126.98" ry="18"/>
<text text-anchor="middle" x="2101.44" y="-14.3" font-family="Times,serif" font-size="14.00">components/ui/badge.tsx</text>
</g>
<!-- components/BlogCard.tsx&#45;&gt;components/ui/badge.tsx -->
<g id="edge10" class="edge">
<title>components/BlogCard.tsx&#45;&gt;components/ui/badge.tsx</title>
<path fill="none" stroke="black" d="M2100.83,-61.67C2100.95,-53.05 2101.08,-43.79 2101.19,-36.1"/>
<polygon fill="black" stroke="black" points="2097.33,-61.65 2100.68,-71.7 2104.33,-61.75 2097.33,-61.65"/>
</g>
<!-- components/ui/button.tsx -->
<g id="node44" class="node">
<title>components/ui/button.tsx</title>
<ellipse fill="lightblue" stroke="lightblue" cx="1002.44" cy="-18" rx="129.18" ry="18"/>
<text text-anchor="middle" x="1002.44" y="-14.3" font-family="Times,serif" font-size="14.00">components/ui/button.tsx</text>
</g>
<!-- components/Navbar.tsx&#45;&gt;components/ui/button.tsx -->
<g id="edge11" class="edge">
<title>components/Navbar.tsx&#45;&gt;components/ui/button.tsx</title>
<path fill="none" stroke="black" d="M817.95,-71.07C858.13,-59.73 909.53,-45.22 947.87,-34.4"/>
<polygon fill="black" stroke="black" points="816.92,-67.73 808.25,-73.81 818.82,-74.46 816.92,-67.73"/>
</g>
<!-- components/Hero.tsx&#45;&gt;components/ui/button.tsx -->
<g id="edge12" class="edge">
<title>components/Hero.tsx&#45;&gt;components/ui/button.tsx</title>
<path fill="none" stroke="black" d="M1002.44,-61.67C1002.44,-53.05 1002.44,-43.79 1002.44,-36.1"/>
<polygon fill="black" stroke="black" points="998.94,-61.7 1002.44,-71.7 1005.94,-61.7 998.94,-61.7"/>
</g>
<!-- components/ui/input.tsx -->
<g id="node9" class="node">
<title>components/ui/input.tsx</title>
<ellipse fill="lightblue" stroke="lightblue" cx="1833.44" cy="-18" rx="122.68" ry="18"/>
<text text-anchor="middle" x="1833.44" y="-14.3" font-family="Times,serif" font-size="14.00">components/ui/input.tsx</text>
</g>
<!-- components/Footer.tsx&#45;&gt;components/ui/input.tsx -->
<g id="edge14" class="edge">
<title>components/Footer.tsx&#45;&gt;components/ui/input.tsx</title>
<path fill="none" stroke="black" d="M1834.05,-61.67C1833.92,-53.05 1833.79,-43.79 1833.68,-36.1"/>
<polygon fill="black" stroke="black" points="1830.55,-61.75 1834.19,-71.7 1837.55,-61.65 1830.55,-61.75"/>
</g>
<!-- components/Footer.tsx&#45;&gt;components/ui/button.tsx -->
<g id="edge13" class="edge">
<title>components/Footer.tsx&#45;&gt;components/ui/button.tsx</title>
<path fill="none" stroke="black" d="M1742.36,-75.84C1731.28,-74.44 1720.11,-73.12 1709.44,-72 1502.41,-50.18 1260.36,-34.06 1119.91,-25.63"/>
<polygon fill="black" stroke="black" points="1742.13,-79.34 1752.49,-77.14 1743.02,-72.39 1742.13,-79.34"/>
</g>
<!-- components/ui/popover.tsx -->
<g id="node8" class="node">
<title>components/ui/popover.tsx</title>
<ellipse fill="orange" stroke="orange" cx="1912.44" cy="-306" rx="135.38" ry="18"/>
<text text-anchor="middle" x="1912.44" y="-302.3" font-family="Times,serif" font-size="14.00">components/ui/popover.tsx</text>
</g>
<!-- components/ui/checkbox.tsx -->
<g id="node10" class="node">
<title>components/ui/checkbox.tsx</title>
<ellipse fill="orange" stroke="orange" cx="2207.44" cy="-306" rx="141.88" ry="18"/>
<text text-anchor="middle" x="2207.44" y="-302.3" font-family="Times,serif" font-size="14.00">components/ui/checkbox.tsx</text>
</g>
<!-- components/ui/select.tsx -->
<g id="node11" class="node">
<title>components/ui/select.tsx</title>
<ellipse fill="orange" stroke="orange" cx="2493.44" cy="-306" rx="126.18" ry="18"/>
<text text-anchor="middle" x="2493.44" y="-302.3" font-family="Times,serif" font-size="14.00">components/ui/select.tsx</text>
</g>
<!-- components/ui/table.tsx -->
<g id="node12" class="node">
<title>components/ui/table.tsx</title>
<ellipse fill="orange" stroke="orange" cx="2759.44" cy="-306" rx="122.38" ry="18"/>
<text text-anchor="middle" x="2759.44" y="-302.3" font-family="Times,serif" font-size="14.00">components/ui/table.tsx</text>
</g>
<!-- components/ui/breadcrumb.tsx -->
<g id="node13" class="node">
<title>components/ui/breadcrumb.tsx</title>
<ellipse fill="orange" stroke="orange" cx="3055.44" cy="-306" rx="155.17" ry="18"/>
<text text-anchor="middle" x="3055.44" y="-302.3" font-family="Times,serif" font-size="14.00">components/ui/breadcrumb.tsx</text>
</g>
<!-- components/ui/dropdown&#45;menu.tsx -->
<g id="node14" class="node">
<title>components/ui/dropdown&#45;menu.tsx</title>
<ellipse fill="orange" stroke="orange" cx="3402.44" cy="-306" rx="173.57" ry="18"/>
<text text-anchor="middle" x="3402.44" y="-302.3" font-family="Times,serif" font-size="14.00">components/ui/dropdown&#45;menu.tsx</text>
</g>
<!-- components/ui/radio&#45;group.tsx -->
<g id="node15" class="node">
<title>components/ui/radio&#45;group.tsx</title>
<ellipse fill="orange" stroke="orange" cx="3746.44" cy="-306" rx="152.97" ry="18"/>
<text text-anchor="middle" x="3746.44" y="-302.3" font-family="Times,serif" font-size="14.00">components/ui/radio&#45;group.tsx</text>
</g>
<!-- components/ui/form.tsx -->
<g id="node16" class="node">
<title>components/ui/form.tsx</title>
<ellipse fill="orange" stroke="orange" cx="4037.44" cy="-306" rx="120.48" ry="18"/>
<text text-anchor="middle" x="4037.44" y="-302.3" font-family="Times,serif" font-size="14.00">components/ui/form.tsx</text>
</g>
<!-- components/ui/label.tsx -->
<g id="node43" class="node">
<title>components/ui/label.tsx</title>
<ellipse fill="orange" stroke="orange" cx="4037.44" cy="-234" rx="120.78" ry="18"/>
<text text-anchor="middle" x="4037.44" y="-230.3" font-family="Times,serif" font-size="14.00">components/ui/label.tsx</text>
</g>
<!-- components/ui/form.tsx&#45;&gt;components/ui/label.tsx -->
<g id="edge15" class="edge">
<title>components/ui/form.tsx&#45;&gt;components/ui/label.tsx</title>
<path fill="none" stroke="black" d="M4037.44,-277.67C4037.44,-269.05 4037.44,-259.79 4037.44,-252.1"/>
<polygon fill="black" stroke="black" points="4033.94,-277.7 4037.44,-287.7 4040.94,-277.7 4033.94,-277.7"/>
</g>
<!-- components/ui/input&#45;otp.tsx -->
<g id="node17" class="node">
<title>components/ui/input&#45;otp.tsx</title>
<ellipse fill="orange" stroke="orange" cx="4316.44" cy="-306" rx="141.07" ry="18"/>
<text text-anchor="middle" x="4316.44" y="-302.3" font-family="Times,serif" font-size="14.00">components/ui/input&#45;otp.tsx</text>
</g>
<!-- components/ui/card.tsx -->
<g id="node18" class="node">
<title>components/ui/card.tsx</title>
<ellipse fill="orange" stroke="orange" cx="4594.44" cy="-306" rx="118.88" ry="18"/>
<text text-anchor="middle" x="4594.44" y="-302.3" font-family="Times,serif" font-size="14.00">components/ui/card.tsx</text>
</g>
<!-- components/ui/skeleton.tsx -->
<g id="node20" class="node">
<title>components/ui/skeleton.tsx</title>
<ellipse fill="orange" stroke="orange" cx="4869.44" cy="-306" rx="137.58" ry="18"/>
<text text-anchor="middle" x="4869.44" y="-302.3" font-family="Times,serif" font-size="14.00">components/ui/skeleton.tsx</text>
</g>
<!-- components/ui/aspect&#45;ratio.tsx -->
<g id="node21" class="node">
<title>components/ui/aspect&#45;ratio.tsx</title>
<ellipse fill="orange" stroke="orange" cx="5178.44" cy="-306" rx="153.27" ry="18"/>
<text text-anchor="middle" x="5178.44" y="-302.3" font-family="Times,serif" font-size="14.00">components/ui/aspect&#45;ratio.tsx</text>
</g>
<!-- components/ui/drawer.tsx -->
<g id="node22" class="node">
<title>components/ui/drawer.tsx</title>
<ellipse fill="orange" stroke="orange" cx="5480.44" cy="-306" rx="130.78" ry="18"/>
<text text-anchor="middle" x="5480.44" y="-302.3" font-family="Times,serif" font-size="14.00">components/ui/drawer.tsx</text>
</g>
<!-- components/ui/toggle&#45;group.tsx -->
<g id="node23" class="node">
<title>components/ui/toggle&#45;group.tsx</title>
<ellipse fill="orange" stroke="orange" cx="5787.44" cy="-306" rx="157.87" ry="18"/>
<text text-anchor="middle" x="5787.44" y="-302.3" font-family="Times,serif" font-size="14.00">components/ui/toggle&#45;group.tsx</text>
</g>
<!-- components/ui/toggle.tsx -->
<g id="node45" class="node">
<title>components/ui/toggle.tsx</title>
<ellipse fill="orange" stroke="orange" cx="5787.44" cy="-234" rx="128.08" ry="18"/>
<text text-anchor="middle" x="5787.44" y="-230.3" font-family="Times,serif" font-size="14.00">components/ui/toggle.tsx</text>
</g>
<!-- components/ui/toggle&#45;group.tsx&#45;&gt;components/ui/toggle.tsx -->
<g id="edge16" class="edge">
<title>components/ui/toggle&#45;group.tsx&#45;&gt;components/ui/toggle.tsx</title>
<path fill="none" stroke="black" d="M5787.44,-277.67C5787.44,-269.05 5787.44,-259.79 5787.44,-252.1"/>
<polygon fill="black" stroke="black" points="5783.94,-277.7 5787.44,-287.7 5790.94,-277.7 5783.94,-277.7"/>
</g>
<!-- components/ui/hover&#45;card.tsx -->
<g id="node24" class="node">
<title>components/ui/hover&#45;card.tsx</title>
<ellipse fill="orange" stroke="orange" cx="6111.44" cy="-306" rx="148.37" ry="18"/>
<text text-anchor="middle" x="6111.44" y="-302.3" font-family="Times,serif" font-size="14.00">components/ui/hover&#45;card.tsx</text>
</g>
<!-- components/ui/collapsible.tsx -->
<g id="node25" class="node">
<title>components/ui/collapsible.tsx</title>
<ellipse fill="orange" stroke="orange" cx="6425.44" cy="-306" rx="147.57" ry="18"/>
<text text-anchor="middle" x="6425.44" y="-302.3" font-family="Times,serif" font-size="14.00">components/ui/collapsible.tsx</text>
</g>
<!-- components/ui/chart.tsx -->
<g id="node26" class="node">
<title>components/ui/chart.tsx</title>
<ellipse fill="orange" stroke="orange" cx="6713.44" cy="-306" rx="122.68" ry="18"/>
<text text-anchor="middle" x="6713.44" y="-302.3" font-family="Times,serif" font-size="14.00">components/ui/chart.tsx</text>
</g>
<!-- components/ui/sheet.tsx -->
<g id="node27" class="node">
<title>components/ui/sheet.tsx</title>
<ellipse fill="orange" stroke="orange" cx="6978.44" cy="-306" rx="124.28" ry="18"/>
<text text-anchor="middle" x="6978.44" y="-302.3" font-family="Times,serif" font-size="14.00">components/ui/sheet.tsx</text>
</g>
<!-- components/ui/navigation&#45;menu.tsx -->
<g id="node28" class="node">
<title>components/ui/navigation&#45;menu.tsx</title>
<ellipse fill="orange" stroke="orange" cx="7296.44" cy="-306" rx="176.27" ry="18"/>
<text text-anchor="middle" x="7296.44" y="-302.3" font-family="Times,serif" font-size="14.00">components/ui/navigation&#45;menu.tsx</text>
</g>
<!-- components/ui/switch.tsx -->
<g id="node29" class="node">
<title>components/ui/switch.tsx</title>
<ellipse fill="orange" stroke="orange" cx="7619.44" cy="-306" rx="128.88" ry="18"/>
<text text-anchor="middle" x="7619.44" y="-302.3" font-family="Times,serif" font-size="14.00">components/ui/switch.tsx</text>
</g>
<!-- components/ui/command.tsx -->
<g id="node30" class="node">
<title>components/ui/command.tsx</title>
<ellipse fill="orange" stroke="orange" cx="7909.44" cy="-306" rx="143.77" ry="18"/>
<text text-anchor="middle" x="7909.44" y="-302.3" font-family="Times,serif" font-size="14.00">components/ui/command.tsx</text>
</g>
<!-- components/ui/dialog.tsx -->
<g id="node50" class="node">
<title>components/ui/dialog.tsx</title>
<ellipse fill="orange" stroke="orange" cx="7909.44" cy="-234" rx="126.98" ry="18"/>
<text text-anchor="middle" x="7909.44" y="-230.3" font-family="Times,serif" font-size="14.00">components/ui/dialog.tsx</text>
</g>
<!-- components/ui/command.tsx&#45;&gt;components/ui/dialog.tsx -->
<g id="edge17" class="edge">
<title>components/ui/command.tsx&#45;&gt;components/ui/dialog.tsx</title>
<path fill="none" stroke="black" d="M7909.44,-277.67C7909.44,-269.05 7909.44,-259.79 7909.44,-252.1"/>
<polygon fill="black" stroke="black" points="7905.94,-277.7 7909.44,-287.7 7912.94,-277.7 7905.94,-277.7"/>
</g>
<!-- components/ui/accordion.tsx -->
<g id="node31" class="node">
<title>components/ui/accordion.tsx</title>
<ellipse fill="orange" stroke="orange" cx="8214.44" cy="-306" rx="143.77" ry="18"/>
<text text-anchor="middle" x="8214.44" y="-302.3" font-family="Times,serif" font-size="14.00">components/ui/accordion.tsx</text>
</g>
<!-- components/ui/context&#45;menu.tsx -->
<g id="node32" class="node">
<title>components/ui/context&#45;menu.tsx</title>
<ellipse fill="orange" stroke="orange" cx="8537.44" cy="-306" rx="161.67" ry="18"/>
<text text-anchor="middle" x="8537.44" y="-302.3" font-family="Times,serif" font-size="14.00">components/ui/context&#45;menu.tsx</text>
</g>
<!-- components/ui/avatar.tsx -->
<g id="node33" class="node">
<title>components/ui/avatar.tsx</title>
<ellipse fill="orange" stroke="orange" cx="8844.44" cy="-306" rx="127.28" ry="18"/>
<text text-anchor="middle" x="8844.44" y="-302.3" font-family="Times,serif" font-size="14.00">components/ui/avatar.tsx</text>
</g>
<!-- components/ui/progress.tsx -->
<g id="node35" class="node">
<title>components/ui/progress.tsx</title>
<ellipse fill="orange" stroke="orange" cx="9129.44" cy="-306" rx="139.98" ry="18"/>
<text text-anchor="middle" x="9129.44" y="-302.3" font-family="Times,serif" font-size="14.00">components/ui/progress.tsx</text>
</g>
<!-- components/ui/carousel.tsx -->
<g id="node36" class="node">
<title>components/ui/carousel.tsx</title>
<ellipse fill="orange" stroke="orange" cx="1268.44" cy="-90" rx="137.58" ry="18"/>
<text text-anchor="middle" x="1268.44" y="-86.3" font-family="Times,serif" font-size="14.00">components/ui/carousel.tsx</text>
</g>
<!-- components/ui/carousel.tsx&#45;&gt;components/ui/button.tsx -->
<g id="edge18" class="edge">
<title>components/ui/carousel.tsx&#45;&gt;components/ui/button.tsx</title>
<path fill="none" stroke="black" d="M1200.17,-71.03C1156.83,-59.63 1101.37,-45.03 1060.22,-34.21"/>
<polygon fill="black" stroke="black" points="1199.5,-74.48 1210.06,-73.64 1201.28,-67.71 1199.5,-74.48"/>
</g>
<!-- components/ui/calendar.tsx -->
<g id="node37" class="node">
<title>components/ui/calendar.tsx</title>
<ellipse fill="orange" stroke="orange" cx="1562.44" cy="-90" rx="137.58" ry="18"/>
<text text-anchor="middle" x="1562.44" y="-86.3" font-family="Times,serif" font-size="14.00">components/ui/calendar.tsx</text>
</g>
<!-- components/ui/calendar.tsx&#45;&gt;components/ui/button.tsx -->
<g id="edge19" class="edge">
<title>components/ui/calendar.tsx&#45;&gt;components/ui/button.tsx</title>
<path fill="none" stroke="black" d="M1456.25,-75.73C1352.02,-62.7 1194.6,-43.02 1095.23,-30.6"/>
<polygon fill="black" stroke="black" points="1456.13,-79.24 1466.49,-77.01 1457,-72.29 1456.13,-79.24"/>
</g>
<!-- components/ui/scroll&#45;area.tsx -->
<g id="node38" class="node">
<title>components/ui/scroll&#45;area.tsx</title>
<ellipse fill="orange" stroke="orange" cx="9434.44" cy="-306" rx="147.57" ry="18"/>
<text text-anchor="middle" x="9434.44" y="-302.3" font-family="Times,serif" font-size="14.00">components/ui/scroll&#45;area.tsx</text>
</g>
<!-- components/ui/menubar.tsx -->
<g id="node39" class="node">
<title>components/ui/menubar.tsx</title>
<ellipse fill="orange" stroke="orange" cx="9739.44" cy="-306" rx="139.18" ry="18"/>
<text text-anchor="middle" x="9739.44" y="-302.3" font-family="Times,serif" font-size="14.00">components/ui/menubar.tsx</text>
</g>
<!-- components/ui/alert&#45;dialog.tsx -->
<g id="node40" class="node">
<title>components/ui/alert&#45;dialog.tsx</title>
<ellipse fill="orange" stroke="orange" cx="151.44" cy="-90" rx="151.37" ry="18"/>
<text text-anchor="middle" x="151.44" y="-86.3" font-family="Times,serif" font-size="14.00">components/ui/alert&#45;dialog.tsx</text>
</g>
<!-- components/ui/alert&#45;dialog.tsx&#45;&gt;components/ui/button.tsx -->
<g id="edge20" class="edge">
<title>components/ui/alert&#45;dialog.tsx&#45;&gt;components/ui/button.tsx</title>
<path fill="none" stroke="black" d="M268.52,-76.16C282.97,-74.69 297.54,-73.27 311.44,-72 514.68,-53.41 751.96,-36.19 888.94,-26.68"/>
<polygon fill="black" stroke="black" points="268.14,-72.68 258.54,-77.18 268.85,-79.64 268.14,-72.68"/>
</g>
<!-- components/ui/alert.tsx -->
<g id="node41" class="node">
<title>components/ui/alert.tsx</title>
<ellipse fill="orange" stroke="orange" cx="10016.44" cy="-306" rx="120.48" ry="18"/>
<text text-anchor="middle" x="10016.44" y="-302.3" font-family="Times,serif" font-size="14.00">components/ui/alert.tsx</text>
</g>
<!-- components/ui/tabs.tsx -->
<g id="node42" class="node">
<title>components/ui/tabs.tsx</title>
<ellipse fill="orange" stroke="orange" cx="10273.44" cy="-306" rx="118.08" ry="18"/>
<text text-anchor="middle" x="10273.44" y="-302.3" font-family="Times,serif" font-size="14.00">components/ui/tabs.tsx</text>
</g>
<!-- components/ui/resizable.tsx -->
<g id="node46" class="node">
<title>components/ui/resizable.tsx</title>
<ellipse fill="orange" stroke="orange" cx="10550.44" cy="-306" rx="140.28" ry="18"/>
<text text-anchor="middle" x="10550.44" y="-302.3" font-family="Times,serif" font-size="14.00">components/ui/resizable.tsx</text>
</g>
<!-- components/ui/separator.tsx -->
<g id="node47" class="node">
<title>components/ui/separator.tsx</title>
<ellipse fill="orange" stroke="orange" cx="10851.44" cy="-306" rx="142.17" ry="18"/>
<text text-anchor="middle" x="10851.44" y="-302.3" font-family="Times,serif" font-size="14.00">components/ui/separator.tsx</text>
</g>
<!-- components/ui/textarea.tsx -->
<g id="node49" class="node">
<title>components/ui/textarea.tsx</title>
<ellipse fill="orange" stroke="orange" cx="11149.44" cy="-306" rx="137.58" ry="18"/>
<text text-anchor="middle" x="11149.44" y="-302.3" font-family="Times,serif" font-size="14.00">components/ui/textarea.tsx</text>
</g>
<!-- components/ui/slider.tsx -->
<g id="node51" class="node">
<title>components/ui/slider.tsx</title>
<ellipse fill="orange" stroke="orange" cx="11429.44" cy="-306" rx="124.28" ry="18"/>
<text text-anchor="middle" x="11429.44" y="-302.3" font-family="Times,serif" font-size="14.00">components/ui/slider.tsx</text>
</g>
<!-- components/ui/pagination.tsx -->
<g id="node52" class="node">
<title>components/ui/pagination.tsx</title>
<ellipse fill="orange" stroke="orange" cx="468.44" cy="-90" rx="147.57" ry="18"/>
<text text-anchor="middle" x="468.44" y="-86.3" font-family="Times,serif" font-size="14.00">components/ui/pagination.tsx</text>
</g>
<!-- components/ui/pagination.tsx&#45;&gt;components/ui/button.tsx -->
<g id="edge21" class="edge">
<title>components/ui/pagination.tsx&#45;&gt;components/ui/button.tsx</title>
<path fill="none" stroke="black" d="M574.82,-75.05C673.39,-62.13 818.45,-43.12 911.69,-30.9"/>
<polygon fill="black" stroke="black" points="574.29,-71.59 564.83,-76.36 575.2,-78.53 574.29,-71.59"/>
</g>
<!-- App.css -->
<g id="node54" class="node">
<title>App.css</title>
<ellipse fill="yellow" stroke="yellow" cx="11617.44" cy="-306" rx="46.29" ry="18"/>
<text text-anchor="middle" x="11617.44" y="-302.3" font-family="Times,serif" font-size="14.00">App.css</text>
</g>
</g>
</svg>
